Coordinates
version=1
nRows=16
nColumns=28
inDegrees=yes

Units are S.I. units (second, meters, Newtons, ...)
Angles are in degrees.

endheader
time	pelvis_tilt	pelvis_list	pelvis_rotation	pelvis_tx	pelvis_ty	pelvis_tz	hip_flexion_r	hip_adduction_r	hip_rotation_r	knee_angle_r	ankle_angle_r	subtalar_angle_r	mtp_angle_r	hip_flexion_l	hip_adduction_l	hip_rotation_l	knee_angle_l	socket_flexion	socket_adduction	socket_rotation	socket_tx	socket_ty	socket_tz	foot_flex	lumbar_extension	lumbar_bending	lumbar_rotation
      0.81250000	     -1.69090568	     -9.30960247	      7.46554924	      0.40866343	      0.98140285	      0.28804976	      9.03836787	     17.17682949	      8.16666202	    -18.13278319	     -1.20984820	    -36.50638727	    -16.05112024	     24.47421575	    -14.17044538	      2.95660647	    -73.22810877	     -2.92757849	      0.00000000	      0.00000000	      0.00000000	     -0.00242261	      0.00000000	     -1.14225552	     -5.46701324	      7.05147253	     -8.13211007
      0.81666667	     -1.83352709	     -8.78718177	      7.59031186	      0.41404299	      0.98277885	      0.28687726	      8.60179833	     16.41976562	      7.64079354	    -17.82061544	     -1.07714744	    -35.74219073	    -15.26277949	     25.18752557	    -13.11135244	      3.27756357	    -72.54706487	     -2.56090620	      0.00000000	      0.00000000	      0.00000000	     -0.00220905	      0.00000000	     -1.14904771	     -5.34724525	      6.55746863	     -8.13864709
      0.82083333	     -1.81521397	     -8.31929395	      7.66602985	      0.41945989	      0.98419725	      0.28573952	      7.98192999	     15.73449596	      7.14328471	    -17.48676278	     -0.73878206	    -34.48519744	    -12.95948943	     25.73385385	    -12.19096222	      3.50648486	    -72.05893121	     -2.47546012	      0.00000000	      0.00000000	      0.00000000	     -0.00181056	      0.00000000	     -1.17483255	     -5.49021425	      6.12374198	     -8.11095317
      0.82500000	     -1.90469643	     -8.04864837	      7.59896346	      0.42467245	      0.98532094	      0.28517347	      7.42407202	     15.39939038	      7.32323348	    -17.04543552	     -0.76959690	    -34.37238982	    -12.90661495	     26.54522844	    -11.58549109	      3.67078269	    -71.84141951	     -2.56679955	      0.00000000	      0.00000000	      0.00000000	     -0.00084640	      0.00000000	     -1.22192487	     -5.50171514	      5.87757131	     -7.98665686
      0.82916667	     -2.03343085	     -7.71233527	      7.65025043	      0.43013184	      0.98644452	      0.28435810	      6.90802235	     14.93636014	      7.17930624	    -16.58633521	     -0.92152974	    -34.17785982	    -12.76699302	     27.27816800	    -10.85235473	      3.90114761	    -71.32422115	     -2.50189664	      0.00000000	      0.00000000	      0.00000000	     -0.00024813	      0.00000000	     -1.23782290	     -5.38876852	      5.55852657	     -7.84066301
      0.83333333	     -2.11266942	     -7.46077965	      7.60815680	      0.43542192	      0.98747083	      0.28385773	      6.35484065	     14.62485126	      7.29840107	    -16.15374536	     -0.93423683	    -34.00375772	    -12.67049146	     28.03457642	    -10.29772954	      4.05542642	    -71.02722239	     -2.63936045	      0.00000000	      0.00000000	      0.00000000	      0.00072335	      0.00000000	     -1.25899660	     -5.40479811	      5.29695342	     -7.73806671
      0.83750000	     -2.17719611	     -7.33561214	      7.41239136	      0.44070018	      0.98832951	      0.28370797	      5.93987883	     14.46624655	      7.26740843	    -15.97866506	     -0.92156754	    -33.95027696	    -12.64490000	     28.69642586	    -10.01618233	      4.05288445	    -70.67131003	     -2.84279426	      0.00000000	      0.00000000	      0.00000000	      0.00121505	      0.00000000	     -1.24077905	     -5.52922104	      5.29244019	     -7.69914330
      0.84166667	     -2.26595432	     -6.95437054	      7.61528497	      0.44630244	      0.98946160	      0.28275495	      5.26221764	     13.96016156	      7.19566261	    -15.28716044	     -1.12265847	    -33.56301853	    -12.43486375	     29.37829252	     -9.19882593	      4.38137985	    -70.08884279	     -2.83326534	      0.00000000	      0.00000000	      0.00000000	      0.00227530	      0.00000000	     -1.27866530	     -5.31352517	      4.84440751	     -7.49449388
      0.84583333	     -2.32690587	     -6.75647983	      7.56261928	      0.45164052	      0.99032926	      0.28242370	      4.72798378	     13.72634755	      7.30171289	    -14.90369314	     -1.12170668	    -33.39559690	    -12.32548063	     30.06347442	     -8.77370623	      4.49240077	    -69.72723210	     -3.07382857	      0.00000000	      0.00000000	      0.00000000	      0.00331070	      0.00000000	     -1.28094435	     -5.34834922	      4.64624855	     -7.41351057
      0.85000000	     -2.39708570	     -6.56978859	      7.52228582	      0.45707380	      0.99114955	      0.28211778	      4.19926808	     13.50095019	      7.36332694	    -14.50445177	     -1.16874389	    -33.23085224	    -12.23790075	     30.72346473	     -8.37683628	      4.59404013	    -69.31690057	     -3.33807785	      0.00000000	      0.00000000	      0.00000000	      0.00431094	      0.00000000	     -1.28257956	     -5.33595904	      4.47342798	     -7.31146066
      0.85416667	     -2.46124027	     -6.40852703	      7.48506326	      0.46252176	      0.99190011	      0.28185551	      3.67592363	     13.30668733	      7.40290415	    -14.11290171	     -1.24288520	    -33.07403826	    -12.15489381	     31.35051447	     -8.02268241	      4.69860418	    -68.86752820	     -3.63108692	      0.00000000	      0.00000000	      0.00000000	      0.00522869	      0.00000000	     -1.27343924	     -5.30448149	      4.30957892	     -7.20307941
      0.85833333	     -2.52607384	     -6.26584270	      7.44816926	      0.46799170	      0.99259236	      0.28164736	      3.16177779	     13.14007683	      7.44931216	    -13.73214954	     -1.32714821	    -32.93766065	    -12.07853801	     31.95790332	     -7.70967314	      4.79030386	    -68.39777019	     -3.96183716	      0.00000000	      0.00000000	      0.00000000	      0.00615551	      0.00000000	     -1.25684837	     -5.27761747	      4.16948801	     -7.09295185
      0.86250000	     -2.56382981	     -6.22208350	      7.30378142	      0.47322477	      0.99313610	      0.28171691	      2.81808880	     13.10398605	      7.41351374	    -13.69613669	     -1.32999821	    -32.90913769	    -12.06247123	     32.52022376	     -7.59048934	      4.81026442	    -67.90714875	     -4.32660475	      0.00000000	      0.00000000	      0.00000000	      0.00679705	      0.00000000	     -1.18688269	     -5.39056515	      4.15722812	     -7.06682142
      0.86666667	     -2.67842706	     -6.04717276	      7.30944295	      0.47890050	      0.99372421	      0.28150136	      2.21421764	     12.89888596	      7.58695541	    -13.05659165	     -1.43395307	    -32.74498270	    -12.00432958	     33.16576885	     -7.23977115	      4.89951953	    -67.47457630	     -4.76911337	      0.00000000	      0.00000000	      0.00000000	      0.00811993	      0.00000000	     -1.21119772	     -5.22954898	      3.96043808	     -6.90386804
      0.87083333	     -2.71340986	     -6.01766424	      7.19635583	      0.48412658	      0.99414245	      0.28155528	      1.85947449	     12.88332441	      7.57234765	    -12.99003571	     -1.46091741	    -32.72383388	    -11.99455252	     33.70965639	     -7.14313855	      4.92528090	    -66.97682170	     -5.21990613	      0.00000000	      0.00000000	      0.00000000	      0.00886526	      0.00000000	     -1.14278661	     -5.31434628	      3.94110284	     -6.86936964
      0.87500000	     -2.82298427	     -5.90290653	      7.19803594	      0.48987263	      0.99459763	      0.28142503	      1.26652339	     12.75521255	      7.76112433	    -12.37620981	     -1.61430491	    -32.60579090	    -11.96166739	     34.29108812	     -6.90603998	      4.95890700	    -66.48800939	     -5.74583304	      0.00000000	      0.00000000	      0.00000000	      0.01002765	      0.00000000	     -1.14160278	     -5.12845435	      3.80896126	     -6.69786919
